<svg id="Layer_1" data-name="Layer 1" xmlns="http://www.w3.org/2000/svg" viewBox="0 0 141.17 81.31"><defs><style>.cls-1{fill:#2c5177;}</style></defs><title>bluelogofbi</title><path class="cls-1" d="M35.62,24.54a7.14,7.14,0,0,1,6.83,9.2l0,.06c0,.13-.09.25-.13.37s-.07.19-.11.29-.15.32-.23.48l-.07.14-.09.15a7.1,7.1,0,0,1-6.19,3.59H25.76V72.69a7.14,7.14,0,0,1-14.28,0V38.81H7.14a7.14,7.14,0,0,1,0-14.27h4.34V20.82c0-2.1-.14-9.83,5.7-15.46C21.77.93,28.35-.77,36.72.32h.05l.19,0h0a7.13,7.13,0,0,1-1,14.2,7.22,7.22,0,0,1-1-.07h0c-3.79-.51-6.54,0-7.92,1.1s-1.38,5-1.38,5v4h9.86Z"/><path class="cls-1" d="M108.32,68.27a28.61,28.61,0,0,1-39.45,8.5,7.13,7.13,0,0,1-13.47-3.29s0,0,0,0h0V8.71a7.14,7.14,0,1,1,14.27,0V26.47a28.4,28.4,0,0,1,14.62-4C107.34,22.42,121.22,48.7,108.32,68.27ZM96.4,43.32c-8-12.21-26.63-6.43-26.72,8.45V52A14.9,14.9,0,0,0,84.31,67C96,67,103,53.38,96.4,43.32Z"/><path class="cls-1" d="M126.9,7.93A7.14,7.14,0,1,1,134,15.07,7.14,7.14,0,0,1,126.9,7.93Zm14.27,21.64V72.7a7.14,7.14,0,1,1-14.27,0V29.57a7.14,7.14,0,1,1,14.27,0Z"/></svg>